<svg width="40" height="38" viewBox="0 0 40 38" fill="none" xmlns="http://www.w3.org/2000/svg">
<mask id="mask0_154_2676" style="mask-type:luminance" maskUnits="userSpaceOnUse" x="0" y="0" width="40" height="37">
<path d="M39.9936 0H0V37H39.9936V0Z" fill="white"/>
</mask>
<g mask="url(#mask0_154_2676)">
<path d="M0.905937 2.12364V2.09631H0.933753C1.52078 1.52344 2.31392 1.20254 3.14015 1.20362H8.05651C3.44073 3.04539 3.75791 2.91486 3.60588 2.98901H3.13999C2.40763 2.98901 1.8118 3.57631 1.8118 4.29768V32.7017C1.8118 33.4233 2.40786 34.0104 3.13999 34.0104H3.60532C3.75807 34.0846 3.44518 33.9555 8.05596 35.7958H3.13999C2.31377 35.7968 1.52064 35.4759 0.933595 34.9031H0.905778V34.8757C0.324395 34.2973 -0.00128827 33.5159 -0.000241626 32.7018V4.2976C-0.00125833 3.4835 0.324484 2.70203 0.905937 2.12364Z" fill="#171C26"/>
<path d="M3.17098 5.83339C3.17113 5.4683 3.28185 5.11156 3.48898 4.80885C3.6961 4.50613 3.9902 4.2712 4.33362 4.13413C4.37638 4.11706 17.0568 0.180176 17.3329 0.0699987C17.9628 -0.181366 18.6507 0.275241 18.6507 0.945004V36.0548C18.6507 36.7244 17.9629 37.1812 17.3329 36.9298C17.2698 36.9046 7.26612 34.0358 7.20262 34.0105L4.33355 32.8658C3.99003 32.7287 3.69587 32.4936 3.48874 32.1908C3.28161 31.8879 3.17094 31.531 3.1709 31.1658L3.17098 5.83339Z" fill="#171C26"/>
<path d="M22.4784 13.9002C22.1947 14.0184 21.9528 14.2162 21.7826 14.4692C21.6125 14.7221 21.5219 15.0187 21.5219 15.3222V21.6774C21.5219 21.8801 21.5623 22.0808 21.641 22.2682C21.7197 22.4555 21.8351 22.6256 21.9806 22.769C22.126 22.9124 22.2987 23.0261 22.4888 23.1037C22.6789 23.1813 22.8826 23.2212 23.0883 23.2212H24.4651V31.6212C24.4651 31.8997 24.3528 32.1668 24.1529 32.3639C23.953 32.5608 23.6818 32.6715 23.3992 32.6715H20.0098V4.32812H23.3995C23.6822 4.32812 23.9533 4.43878 24.1532 4.63574C24.3531 4.8327 24.4654 5.09983 24.4654 5.37838V13.7784H23.0883C22.8788 13.7782 22.6713 13.8196 22.4784 13.9002Z" fill="#171C26"/>
<path d="M24.4962 2.98901H20.0098V1.20362H24.4962C25.3225 1.20256 26.1155 1.52345 26.7026 2.09631H26.7304V2.12364C27.3118 2.70205 27.6374 3.48352 27.6364 4.2976V13.7782H25.8244V4.29768C25.8244 3.57608 25.2286 2.98901 24.4962 2.98901Z" fill="#171C26"/>
<path d="M27.6364 32.7018C27.6375 33.5159 27.3118 34.2974 26.7304 34.8758V34.9032H26.7026C26.1155 35.476 25.3225 35.7969 24.4962 35.7959H20.0098V34.0105H24.4962C25.2286 34.0105 25.8244 33.4232 25.8244 32.7018V23.2212H27.6364V32.7018Z" fill="#171C26"/>
<path d="M23.0884 15.1173H30.8937C30.921 15.1173 30.948 15.112 30.9732 15.1017C30.9985 15.0914 31.0214 15.0763 31.0407 15.0573C31.0599 15.0383 31.0753 15.0157 31.0857 14.9909C31.0962 14.966 31.1015 14.9394 31.1015 14.9125V11.7168C31.1015 11.5445 31.3045 11.4492 31.4403 11.5579L39.9168 18.3407C39.9408 18.3599 39.9601 18.3842 39.9734 18.4116C39.9867 18.4391 39.9936 18.4692 39.9936 18.4997C39.9936 18.5301 39.9867 18.5602 39.9734 18.5877C39.9601 18.6152 39.9408 18.6394 39.9168 18.6586L31.4406 25.4414C31.3049 25.5501 31.1018 25.4549 31.1018 25.2825V22.0868C31.1018 22.06 31.0965 22.0333 31.086 22.0084C31.0756 21.9836 31.0602 21.9611 31.041 21.942C31.0217 21.923 30.9988 21.908 30.9735 21.8976C30.9483 21.8874 30.9213 21.8821 30.894 21.8821H23.0884C23.0333 21.8821 22.9804 21.8605 22.9415 21.8221C22.9025 21.7837 22.8806 21.7316 22.8806 21.6773V15.322C22.8806 15.2678 22.9025 15.2156 22.9415 15.1773C22.9804 15.1389 23.0333 15.1173 23.0884 15.1173Z" fill="#171C26"/>
</g>
</svg>
