<svg width="24" height="24" viewBox="0 0 24 24" fill="none" xmlns="http://www.w3.org/2000/svg">
<path d="M20.5218 7.2938C19.725 6.41255 18.3937 5.97192 16.4625 5.97192H16.2375V5.93442C16.2375 4.35942 16.2375 2.40942 12.7125 2.40942H11.2875C7.76247 2.40942 7.76247 4.3688 7.76247 5.93442V5.9813H7.53747C5.59685 5.9813 4.27497 6.42192 3.4781 7.30317C2.54997 8.33442 2.5781 9.72192 2.67185 10.6688L2.68122 10.7344L2.75243 11.4821C2.76669 11.6319 2.84759 11.7673 2.97352 11.8496C3.19958 11.9974 3.56612 12.2333 3.78747 12.3563C3.91872 12.4407 4.05935 12.5157 4.19997 12.5907C5.8031 13.4719 7.5656 14.0625 9.35622 14.3532C9.4406 15.2344 9.82497 16.2657 11.8781 16.2657C13.9312 16.2657 14.3343 15.2438 14.4 14.3344C16.3125 14.025 18.1593 13.3594 19.8281 12.3844C19.8843 12.3563 19.9218 12.3282 19.9687 12.3C20.3367 12.092 20.7184 11.8362 21.0671 11.5851C21.1802 11.5036 21.2525 11.3775 21.2679 11.239L21.2812 11.1188L21.3281 10.6782C21.3375 10.6219 21.3375 10.575 21.3468 10.5094C21.4218 9.56255 21.4031 8.2688 20.5218 7.2938ZM13.0218 13.7157C13.0218 14.7094 13.0218 14.8594 11.8687 14.8594C10.7156 14.8594 10.7156 14.6813 10.7156 13.725V12.5438H13.0218V13.7157ZM9.1031 5.97192V5.93442C9.1031 4.34067 9.1031 3.75005 11.2875 3.75005H12.7125C14.8968 3.75005 14.8968 4.35005 14.8968 5.93442V5.9813H9.1031V5.97192Z" fill="#171C26"/>
<path d="M20.269 13.6494C20.6228 13.4815 21.0293 13.7622 20.9939 14.1522L20.6625 17.8031C20.4656 19.6781 19.6969 21.5905 15.5719 21.5905H8.4281C4.3031 21.5905 3.53435 19.6781 3.33748 17.8124L3.02301 14.3533C2.98797 13.9679 3.38512 13.6875 3.73789 13.8467C4.81152 14.3314 6.72949 15.1625 7.93022 15.4799C8.09443 15.5234 8.2273 15.641 8.30006 15.7945C8.87227 17.0016 10.1035 17.6437 11.8781 17.6437C13.6352 17.6437 14.8818 16.9768 15.456 15.7666C15.5289 15.613 15.6618 15.4954 15.8261 15.4517C17.1016 15.1127 19.145 14.1831 20.269 13.6494Z" fill="#171C26"/>
</svg>
