<svg width="17" height="17" viewBox="0 0 17 17" fill="none" xmlns="http://www.w3.org/2000/svg">
<path fill-rule="evenodd" clip-rule="evenodd" d="M8.5 15.5833C11.9256 15.5833 14.7026 12.8323 14.7026 9.43874C14.7026 6.0452 11.9256 3.2942 8.5 3.2942C5.07438 3.2942 2.29736 6.0452 2.29736 9.43874C2.29736 12.8323 5.07438 15.5833 8.5 15.5833ZM8.5 6.19579C8.78547 6.19579 9.01689 6.42504 9.01689 6.70783V9.22665L10.5884 10.7835C10.7903 10.9835 10.7903 11.3077 10.5884 11.5076C10.3866 11.7076 10.0593 11.7076 9.85746 11.5076L8.13451 9.80082C8.03757 9.70479 7.98311 9.57455 7.98311 9.43874V6.70783C7.98311 6.42504 8.21453 6.19579 8.5 6.19579Z" fill="white"/>
<path fill-rule="evenodd" clip-rule="evenodd" d="M5.83702 1.65736C5.98832 1.89717 5.91472 2.21307 5.67265 2.36295L2.9159 4.06977C2.67383 4.21965 2.35493 4.14675 2.20364 3.90694C2.05234 3.66713 2.12593 3.35123 2.36801 3.20134L5.12475 1.49453C5.36683 1.34465 5.68572 1.41755 5.83702 1.65736Z" fill="white"/>
<path fill-rule="evenodd" clip-rule="evenodd" d="M11.163 1.65736C11.3143 1.41755 11.6332 1.34465 11.8753 1.49453L14.632 3.20135C14.8741 3.35123 14.9477 3.66713 14.7964 3.90694C14.6451 4.14675 14.3262 4.21965 14.0841 4.06977L11.3274 2.36295C11.0853 2.21307 11.0117 1.89717 11.163 1.65736Z" fill="white"/>
</svg>
