<svg width="41" height="33" viewBox="0 0 41 33" fill="none" xmlns="http://www.w3.org/2000/svg">
<g clip-path="url(#clip0_154_2670)">
<mask id="mask0_154_2670" style="mask-type:luminance" maskUnits="userSpaceOnUse" x="0" y="0" width="41" height="33">
<path d="M40.0956 0H0V32.9761H40.0956V0Z" fill="white"/>
</mask>
<g mask="url(#mask0_154_2670)">
<path d="M40.0949 28.5325C40.0777 27.7236 39.8349 26.9356 39.3938 26.2573L23.7052 1.9899C23.3102 1.37928 22.7686 0.877271 22.1298 0.529685C21.491 0.182099 20.7753 0 20.0481 0C19.3209 0 18.6052 0.182099 17.9664 0.529685C17.3276 0.877271 16.786 1.37928 16.3911 1.9899L0.702419 26.2573C0.275151 26.9144 0.0334298 27.6747 0.00282793 28.4579C-0.0277739 29.2411 0.153882 30.018 0.528576 30.7064C0.903266 31.3948 1.45707 31.9692 2.13139 32.3687C2.80571 32.7682 3.57547 32.978 4.35927 32.9759H35.7365C36.3159 32.975 36.8893 32.8588 37.4233 32.634C37.9574 32.4093 38.4413 32.0805 38.847 31.6668C39.2526 31.2531 39.5719 30.7628 39.7861 30.2244C40.0004 29.6861 40.1053 29.1105 40.0949 28.5312V28.5325ZM35.4074 31.1637H4.68843C2.47234 31.1637 1.13641 28.7094 2.34026 26.8489L17.6976 3.09018C17.9513 2.69816 18.299 2.37588 18.7092 2.15274C19.1194 1.92959 19.5789 1.81269 20.0458 1.81269C20.5127 1.81269 20.9722 1.92959 21.3824 2.15274C21.7925 2.37588 22.1403 2.69816 22.394 3.09018L37.7559 26.8481C38.9594 28.7094 37.6234 31.1637 35.4074 31.1637ZM21.5088 3.66422C21.351 3.42026 21.1348 3.21969 20.8796 3.08081C20.6245 2.94193 20.3386 2.86917 20.0481 2.86917C19.7576 2.86917 19.4717 2.94193 19.2166 3.08081C18.9614 3.21969 18.7451 3.42026 18.5874 3.66422L3.22794 27.4225C3.05817 27.6852 2.96233 27.9887 2.95053 28.3012C2.93872 28.6137 3.01139 28.9236 3.16087 29.1983C3.31036 29.4729 3.53113 29.7022 3.79995 29.862C4.06877 30.0218 4.37571 30.1061 4.68843 30.1062H35.4074C35.72 30.1061 36.0269 30.0217 36.2957 29.8619C36.5645 29.7021 36.7853 29.4729 36.9348 29.1982C37.0843 28.9236 37.157 28.6137 37.1453 28.3013C37.1336 27.9888 37.0379 27.6852 36.8683 27.4225L21.5088 3.66422ZM19.9837 8.27667C20.1843 8.26787 20.3845 8.30091 20.5717 8.37366C20.7588 8.44641 20.9287 8.55728 21.0707 8.69926C21.2127 8.8412 21.3235 9.01114 21.3963 9.19828C21.469 9.38542 21.502 9.58564 21.4933 9.7862L20.9855 21.1676C20.9753 21.4091 20.8721 21.6373 20.6977 21.8045C20.5232 21.9718 20.2908 22.0652 20.0492 22.0652C19.8075 22.0652 19.5751 21.9718 19.4006 21.8045C19.2262 21.6373 19.123 21.4091 19.1128 21.1676L18.6038 9.78201C18.5872 9.39926 18.7232 9.02561 18.9819 8.74312C19.2407 8.46063 19.601 8.2924 19.9837 8.27541V8.27667ZM20.0479 26.973C19.7591 26.973 19.4768 26.8874 19.2367 26.727C18.9966 26.5666 18.8095 26.3385 18.699 26.0717C18.5885 25.805 18.5595 25.5114 18.6159 25.2281C18.6722 24.9449 18.8113 24.6848 19.0155 24.4806C19.2197 24.2764 19.4798 24.1373 19.7631 24.081C20.0463 24.0247 20.3398 24.0536 20.6066 24.1641C20.8734 24.2746 21.1014 24.4617 21.2619 24.7018C21.4223 24.9419 21.5079 25.2242 21.5079 25.513C21.5081 25.7048 21.4705 25.8948 21.3971 26.0721C21.3238 26.2493 21.2163 26.4104 21.0807 26.5461C20.9451 26.6817 20.7841 26.7894 20.6069 26.8628C20.4296 26.9362 20.2397 26.9739 20.0479 26.9739V26.973Z" fill="#171C26"/>
</g>
</g>
<defs>
<clipPath id="clip0_154_2670">
<rect width="40.1283" height="33" fill="white"/>
</clipPath>
</defs>
</svg>
