<svg width="24" height="24" viewBox="0 0 24 24" fill="none" xmlns="http://www.w3.org/2000/svg">
<path d="M12 8.25C10.21 8.25 8.75 9.71 8.75 11.5C8.75 13.29 10.21 14.75 12 14.75C13.79 14.75 15.25 13.29 15.25 11.5C15.25 9.71 13.79 8.25 12 8.25ZM13 11.18C13 11.79 12.67 12.37 12.15 12.68L11.38 13.14C11.26 13.21 11.13 13.25 10.99 13.25C10.74 13.25 10.49 13.12 10.35 12.89C10.14 12.53 10.25 12.07 10.61 11.86L11.37 11.4C11.45 11.35 11.49 11.27 11.49 11.19V10.26C11.49 9.85 11.83 9.51 12.24 9.51C12.65 9.51 13 9.84 13 10.25V11.18Z" fill="#171C26"/>
<path d="M18.54 4.17001L13.04 2.11001C12.47 1.90001 11.54 1.90001 10.97 2.11001L5.47005 4.17001C4.41005 4.57001 3.55005 5.81001 3.55005 6.94001V15.04C3.55005 15.85 4.08005 16.92 4.73005 17.4L10.23 21.51C11.2 22.24 12.79 22.24 13.76 21.51L19.26 17.4C19.91 16.91 20.4401 15.85 20.4401 15.04V6.94001C20.4501 5.81001 19.59 4.57001 18.54 4.17001ZM12 16.25C9.38005 16.25 7.25005 14.12 7.25005 11.5C7.25005 8.88001 9.38005 6.75001 12 6.75001C14.62 6.75001 16.75 8.88001 16.75 11.5C16.75 14.12 14.62 16.25 12 16.25Z" fill="#171C26"/>
</svg>
