<svg width="18" height="10" viewBox="0 0 18 10" fill="none" xmlns="http://www.w3.org/2000/svg">
<path d="M1 4.4C0.668629 4.4 0.4 4.66863 0.4 5C0.4 5.33137 0.668629 5.6 1 5.6L1 4.4ZM13.4243 5.42427C13.6586 5.18995 13.6586 4.81005 13.4243 4.57574L9.60589 0.75736C9.37157 0.523045 8.99167 0.523045 8.75736 0.75736C8.52304 0.991675 8.52304 1.37157 8.75736 1.60589L12.1515 5L8.75736 8.39411C8.52304 8.62843 8.52304 9.00833 8.75736 9.24264C8.99167 9.47696 9.37157 9.47696 9.60589 9.24264L13.4243 5.42427ZM1 5.6L13 5.6L13 4.4L1 4.4L1 5.6Z" fill="#171C26"/>
<path d="M16.5 4.4C16.1686 4.4 15.9 4.66863 15.9 5C15.9 5.33137 16.1686 5.6 16.5 5.6L16.5 4.4ZM17.4243 5.42426C17.6586 5.18995 17.6586 4.81005 17.4243 4.57574L13.6059 0.757359C13.3716 0.523044 12.9917 0.523044 12.7574 0.757359C12.523 0.991674 12.523 1.37157 12.7574 1.60589L16.1515 5L12.7574 8.39411C12.523 8.62843 12.523 9.00833 12.7574 9.24264C12.9917 9.47696 13.3716 9.47696 13.6059 9.24264L17.4243 5.42426ZM16.5 5.6L17 5.6L17 4.4L16.5 4.4L16.5 5.6Z" fill="#171C26"/>
</svg>
