<svg width="20" height="20" viewBox="0 0 20 20" fill="none" xmlns="http://www.w3.org/2000/svg">
<path d="M16.2584 4.87508L11.3083 2.01675C10.5 1.55008 9.50002 1.55008 8.68335 2.01675L3.74168 4.87508C2.93335 5.34175 2.43335 6.20842 2.43335 7.15008V12.8501C2.43335 13.7834 2.93335 14.6501 3.74168 15.1251L8.69168 17.9834C9.50002 18.4501 10.5 18.4501 11.3167 17.9834L16.2667 15.1251C17.075 14.6584 17.575 13.7917 17.575 12.8501V7.15008C17.5667 6.20842 17.0667 5.35008 16.2584 4.87508ZM10 6.11675C11.075 6.11675 11.9417 6.98342 11.9417 8.05841C11.9417 9.13342 11.075 10.0001 10 10.0001C8.92502 10.0001 8.05835 9.13342 8.05835 8.05841C8.05835 6.99175 8.92502 6.11675 10 6.11675ZM12.2333 13.8834H7.76668C7.09168 13.8834 6.70002 13.1334 7.07502 12.5751C7.64168 11.7334 8.74168 11.1667 10 11.1667C11.2584 11.1667 12.3583 11.7334 12.925 12.5751C13.3 13.1251 12.9 13.8834 12.2333 13.8834Z" fill="#FFB400"/>
</svg>
